# xmcd CD database file
#
# Track frame offsets:
#	150
#	21174
#	40892
#	54340
#	72429
#	88618
#	106581
#	116550
#	132336
#	151702
#	169086
#	186029
#
# Disc length: 2625 seconds
#
# Revision: 0
# Processed by: cddbd v1.5.2PL0 Copyright (c) Steve Scherf et al.
# Submitted via: CDex 1.70beta2
#
DISCID=920a3f0c
DTITLE=Tupahn - Scarlet Sun
DYEAR=1900
DGENRE=Jazz
TTITLE0=Scarlet Sun
TTITLE1=Norwegian wood
TTITLE2=Scarborough Fair
TTITLE3=Wild world
TTITLE4=Vincent
TTITLE5=Your Song
TTITLE6=Act naturally
TTITLE7=Tears in heaven
TTITLE8=House of the Rising sun
TTITLE9=Morning has broken
TTITLE10=Something
TTITLE11=As tears go by
EXTD=
EXTT0=
EXTT1=
EXTT2=
EXTT3=
EXTT4=
EXTT5=
EXTT6=
EXTT7=
EXTT8=
EXTT9=
EXTT10=
EXTT11=
PLAYORDER=
